 <svg aria-hidden="true" style="position: absolute; width: 0; height: 0; overflow: hidden;" version="1.1" xmlns="http://www.w3.org/2000/svg" xmlns:xlink="http://www.w3.org/1999/xlink">
<defs>

<symbol id="icon-logo" viewBox="0 0 138 32">
<path fill="#f79967" style="fill: var(--color1, #f79967)" d="M97.743 18.832h-5.511v-14.114c0-0.912-0.43-1.36-1.291-1.36-0.827 0-1.376 0.534-1.376 1.257v15c0 0.903 0.431 1.42 1.249 1.42h7.351c0.641 0 1.131-0.405 1.131-1.145 0.009-0.705-0.818-1.059-1.553-1.059zM114.642 6.608c-1.991 0-3.367 0.972-4.379 2.151l-0.060-0.052v-0.869c0-0.749-0.548-1.231-1.35-1.231-0.768 0-1.316 0.508-1.316 1.231v12.132c0 0.723 0.608 1.205 1.316 1.205 0.793 0 1.35-0.508 1.35-1.205v-6.728c0-2.005 1.62-4.397 3.831-4.397 2.329 0 3.729 1.368 3.729 3.347v7.787c0 0.723 0.616 1.205 1.316 1.205 0.768 0 1.351-0.482 1.351-1.205v-7.554c0-3.485-2.329-5.817-5.788-5.817zM136.32 17.251c-0.92 0-2.11 1.902-5.392 1.902-2.877 0-5.079-1.626-5.079-4.327h10.285c1.013 0 1.468-0.396 1.468-1.145 0-3.769-2.877-7.056-7.129-7.056-4.345 0-7.164 3.64-7.164 7.168 0 4.388 2.725 7.408 7.467 7.408 3.215 0 6.489-1.652 6.489-2.943 0-0.551-0.337-1.007-0.945-1.007zM130.591 8.871c2.785 0 4.421 1.609 4.657 3.959h-9.416c0.514-2.315 1.94-3.959 4.759-3.959zM103.137 3.108c-0.844 0-1.527 0.672-1.527 1.507s0.684 1.505 1.527 1.505c0.844 0 1.528-0.671 1.528-1.505 0.009-0.827-0.684-1.507-1.528-1.507zM103.143 7.585c-0.767 0-1.316 0.533-1.316 1.256v11.142c0 0.697 0.582 1.204 1.316 1.204 0.793 0 1.351-0.508 1.351-1.204v-11.193c-0.009-0.723-0.557-1.204-1.351-1.204z"></path>
<path fill="#de6682" style="fill: var(--color2, #de6682)" d="M59.367 6.155c0.844 0 1.527-0.672 1.527-1.507s-0.684-1.505-1.527-1.505c-0.844 0-1.527 0.671-1.527 1.505 0 0.827 0.684 1.507 1.527 1.507zM54.589 3.21c-0.7 0-1.19 0.267-1.435 0.887l-5.308 13.116h-0.058l-5.191-12.798c-0.245-0.646-0.861-1.205-1.569-1.205-0.676 0-1.191 0.534-1.191 1.205 0 0.189 0.153 0.585 0.304 0.938l6.194 14.793c0.304 0.749 0.641 1.042 1.376 1.042 0.886 0 1.283-0.319 1.62-1.145l6.321-15.095c0.093-0.215 0.127-0.508 0.127-0.645 0.009-0.714-0.422-1.093-1.19-1.093zM59.372 7.562c-0.768 0-1.316 0.534-1.316 1.257v11.142c0 0.697 0.582 1.204 1.316 1.204 0.793 0 1.35-0.508 1.35-1.204v-11.193c-0.008-0.723-0.557-1.205-1.35-1.205zM70.586 8.73c0.059-0.689-0.287-1.274-1.257-1.274h-1.511v-3.132c0-0.749-0.548-1.153-1.351-1.153-0.759 0-1.316 0.431-1.316 1.093v3.185h-1.476c-1.081 0-1.409 0.654-1.316 1.273 0.084 0.551 0.615 0.991 1.316 0.991h1.476v10.292c0 0.86 0.337 1.205 1.258 1.205 0.793 0 1.409-0.456 1.409-1.145v-10.345h1.636c0.641 0 1.080-0.456 1.131-0.989zM85.6 7.895c0-0.697-0.489-1.205-1.257-1.205-0.709 0-1.257 0.508-1.257 1.145v0.775h-0.059c-1.375-1.334-2.574-1.927-4.59-1.927-4.413 0-6.978 3.502-6.978 7.356 0 4.036 2.818 7.408 7.316 7.219 1.62-0.068 3.088-0.749 4.252-2.134h0.059v1.041c0 0.723 0.583 1.092 1.257 1.092 0.793 0 1.257-0.481 1.257-1.204v-12.158zM78.386 19.115c-3.080 0-4.252-2.857-4.252-5.094 0-2.65 1.476-5.12 4.379-5.12 3.055 0 4.472 2.599 4.472 5.12-0.009 2.599-1.249 5.094-4.599 5.094z"></path>
<path fill="#f79967" style="fill: var(--color1, #f79967)" d="M28.911 5.852l0.017-0.017c-2.877-3.554-7.223-5.835-12.102-5.835-4.868 0-9.214 2.263-12.092 5.817l0.017 0.017c0.481 0.396 0.996 0.8 1.553 1.196 0.017 0.009 0.025 0.017 0.042 0.026 2.515-3.064 6.279-5.017 10.489-5.017s7.983 1.962 10.498 5.025c0.009-0.008 0.025-0.017 0.042-0.025 0.54-0.396 1.063-0.8 1.536-1.188z"></path>
<path fill="#f79967" style="fill: var(--color1, #f79967)" d="M20.009 8.252c0-1.851-1.468-3.348-3.283-3.348s-3.284 1.498-3.284 3.348 1.469 3.348 3.284 3.348c1.815 0 3.283-1.506 3.283-3.348z"></path>
<path fill="#fff" style="fill: var(--color3, #fff)" d="M2.6 9.255c0.009-0.017 0.009-0.025 0.017-0.043l-0.092-0.138s0.025 0.069 0.076 0.182z"></path>
<path fill="#de6682" style="fill: var(--color2, #de6682)" d="M0.921 3.057s-2.295 5.456 0.363 10.757c0.531 1.031 1.152 1.919 1.874 2.713l-0.009-0.010c0.836 0.921 1.873 1.807 3.165 2.616 3.755 2.358 8.118 2.513 8.118 7.676v2.9c-0.32-0.051-0.616-0.111-0.886-0.172-5.316-1.334-9.409-5.844-10.236-11.437-0.313-0.292-0.616-0.585-0.895-0.895-0.443-0.488-0.859-1.022-1.234-1.586l-0.031-0.050c0 0.146-0.017 0.292-0.017 0.439 0 6.497 3.798 12.082 9.249 14.586 0.916 0.435 1.985 0.8 3.099 1.041l0.099 0.018v-0.017c0.304 0.069 0.591 0.129 0.852 0.18h0.017c1.241 0.215 1.924 0.172 1.924 0.172v-5.095c0-0.344-0.017-0.671-0.042-0.989-0.473-5.646-4.979-7.359-8.802-10.594-1.705-1.446-2.86-2.788-3.636-3.864-0.769-1.067-1.156-1.85-1.3-2.177-0.051-0.111-0.076-0.18-0.076-0.18l0.093 0.138c0.185 0.266 0.658 0.92 1.425 1.798 1.215 1.377 3.173 3.279 5.933 5.034 5.114 3.245 6.16 5.714 6.337 6.231 0.025 0.069 0.034 0.103 0.034 0.103s0.151-0.981 0-2.426c-0.271-2.564-1.52-6.618-6.346-9.372-1.731-0.99-3.14-1.902-4.279-2.72-0.621-0.447-1.143-0.853-1.65-1.276l0.047 0.038c-2.717-2.247-3.19-3.58-3.19-3.58zM31.223 17.239c-0.279 0.301-0.575 0.593-0.887 0.878l-0.008 0.008c-0.034 0.224-0.068 0.448-0.11 0.663-0.009 0.034-0.009 0.060-0.017 0.095-0.068 0.344-0.16 0.688-0.254 1.024l-0.025 0.086c-0.102 0.336-0.211 0.671-0.337 0.999-0.009 0.017-0.017 0.043-0.025 0.060-0.127 0.335-0.27 0.671-0.422 0.998 0 0 0 0.009-0.009 0.009-0.102 0.224-0.211 0.439-0.329 0.646-0.017 0.034-0.042 0.068-0.058 0.111-0.102 0.181-0.204 0.361-0.313 0.543-0.017 0.025-0.034 0.060-0.051 0.086-0.127 0.198-0.253 0.396-0.388 0.585-1.873 2.693-4.666 4.681-7.898 5.498-0.287 0.070-0.591 0.129-0.92 0.182v-2.9c0-5.164 4.431-5.319 8.185-7.676 1.274-0.8 2.304-1.678 3.14-2.591 0.718-0.781 1.342-1.666 1.841-2.626l0.032-0.068c2.692-5.309 0.388-10.791 0.388-10.791s-0.473 1.334-3.207 3.597c-0.464 0.388-0.996 0.8-1.604 1.239-1.139 0.817-2.54 1.73-4.262 2.711-4.818 2.753-6.067 6.799-6.345 9.372-0.153 1.455 0 2.426 0 2.426s0.008-0.034 0.033-0.103c0.169-0.516 1.215-2.986 6.338-6.231 2.254-1.442 4.198-3.098 5.893-4.982l0.023-0.026c0.484-0.539 0.955-1.126 1.392-1.737l0.042-0.061c0.068-0.103 0.11-0.164 0.11-0.164s-0.025 0.077-0.084 0.207c-0.152 0.344-0.54 1.127-1.3 2.177-0.777 1.068-1.924 2.401-3.62 3.839-3.823 3.244-8.329 4.948-8.801 10.593-0.025 0.319-0.042 0.646-0.042 0.989v5.095h0.017c0.169 0.009 0.81 0.017 1.848-0.172h0.009c0.279-0.051 0.591-0.112 0.919-0.189v0.009c1.055-0.233 2.076-0.568 3.039-0.999 0.042-0.017 0.076-0.025 0.118-0.043 5.46-2.504 9.258-8.089 9.258-14.578 0-0.138-0.009-0.267-0.017-0.404-0.405 0.551-0.819 1.102-1.291 1.618zM45.418 26.191c0.031 0.028 0.050 0.067 0.051 0.112v3.702c-0.001 0.044-0.020 0.084-0.051 0.111l-0 0c-0.025 0.027-0.061 0.044-0.101 0.044-0.003 0-0.006-0-0.008-0l0 0h-0.237c-0.042-0-0.081-0.017-0.109-0.044l0 0c-0.031-0.028-0.050-0.067-0.051-0.112v-1.618h-2.068v1.618c-0.001 0.044-0.020 0.084-0.051 0.112l-0 0c-0.025 0.027-0.061 0.044-0.101 0.044-0.003 0-0.006-0-0.008-0l0 0h-0.245c-0.042-0.002-0.080-0.018-0.109-0.044l0 0c-0.031-0.026-0.051-0.065-0.051-0.108 0-0.001 0-0.003 0-0.004v0-3.701c0.001-0.044 0.020-0.084 0.051-0.112l0-0c0.025-0.027 0.061-0.043 0.1-0.043 0.003 0 0.006 0 0.009 0l-0-0h0.236c0.042 0 0.076 0.017 0.11 0.044 0.031 0.028 0.050 0.067 0.051 0.111v1.575h2.068v-1.575c0.001-0.044 0.020-0.084 0.051-0.112l0-0c0.025-0.027 0.061-0.043 0.1-0.043 0.003 0 0.006 0 0.009 0l-0-0h0.237c0.051 0 0.084 0.009 0.118 0.044zM50.899 29.642h1.967c0.042 0 0.076 0.017 0.109 0.044 0.031 0.028 0.050 0.067 0.051 0.111v0.207c-0.001 0.044-0.020 0.084-0.051 0.112l-0 0c-0.025 0.027-0.061 0.044-0.101 0.044-0.003 0-0.006-0-0.008-0l0 0h-2.372c-0.042-0.002-0.081-0.018-0.11-0.044l0 0c-0.031-0.028-0.050-0.067-0.051-0.112v-3.701c0.001-0.044 0.020-0.084 0.051-0.112l0-0c0.025-0.027 0.061-0.043 0.1-0.043 0.003 0 0.006 0 0.009 0l-0-0h2.33c0.042 0 0.076 0.017 0.109 0.044 0.031 0.028 0.050 0.067 0.051 0.111v0.207c-0.001 0.044-0.020 0.084-0.051 0.112l-0 0c-0.025 0.027-0.061 0.044-0.101 0.044-0.003 0-0.006-0-0.008-0l0 0h-1.924v1.213h1.798c0.042 0 0.076 0.017 0.109 0.044 0.031 0.028 0.050 0.067 0.051 0.111v0.207c-0.001 0.044-0.020 0.084-0.051 0.112l-0 0c-0.025 0.027-0.061 0.043-0.1 0.043-0.003 0-0.006-0-0.009-0l0 0h-1.798v1.248zM58.141 29.249l-0.304 0.766c-0.033 0.095-0.109 0.146-0.228 0.146h-0.22c-0.002 0-0.004 0-0.006 0-0.033 0-0.064-0.013-0.086-0.034l0 0c-0.025-0.026-0.042-0.052-0.042-0.087 0-0.017 0.008-0.043 0.025-0.077l1.435-3.615c0.051-0.129 0.135-0.19 0.262-0.19h0.355c0.127 0 0.211 0.060 0.262 0.189l1.425 3.615c0.013 0.022 0.022 0.049 0.025 0.077l0 0.001c0 0.002 0 0.004 0 0.007 0 0.033-0.017 0.062-0.042 0.079l-0 0c-0.022 0.021-0.053 0.034-0.086 0.034-0.002 0-0.004-0-0.006-0h-0.219c-0.118 0-0.194-0.052-0.228-0.146l-0.304-0.766h-2.017zM59.973 28.733l-0.811-2.049-0.818 2.048h1.629zM68.186 29.685c0.031 0.028 0.050 0.067 0.051 0.112v0.207c-0.001 0.044-0.020 0.084-0.051 0.112l-0 0c-0.025 0.027-0.061 0.044-0.101 0.044-0.003 0-0.006-0-0.008-0l0 0h-2.39c-0.042-0-0.081-0.017-0.109-0.044l0 0c-0.031-0.028-0.050-0.067-0.051-0.112v-3.701c0.001-0.044 0.020-0.084 0.051-0.112l0-0c0.025-0.027 0.061-0.043 0.1-0.043 0.003 0 0.006 0 0.009 0l-0-0h0.236c0.042 0 0.076 0.017 0.109 0.044 0.031 0.028 0.050 0.067 0.051 0.111v3.34h1.984c0.051 0 0.084 0.017 0.118 0.044zM74.667 26.191c0.034 0.035 0.051 0.069 0.051 0.112v0.207c0 0.044-0.017 0.078-0.051 0.112-0.025 0.027-0.061 0.044-0.1 0.044-0.003 0-0.006-0-0.009-0l0 0h-1.097v3.339c0 0.044-0.017 0.078-0.051 0.112-0.025 0.027-0.061 0.044-0.101 0.044-0.003 0-0.006-0-0.009-0l0 0h-0.236c-0.042-0.002-0.080-0.018-0.109-0.044l0 0c-0.031-0.028-0.051-0.067-0.051-0.112v-3.34h-1.097c-0.042-0.002-0.080-0.017-0.109-0.043l0 0c-0.031-0.028-0.050-0.067-0.051-0.112v-0.207c0.001-0.044 0.020-0.084 0.051-0.112l0-0c0.025-0.027 0.061-0.043 0.1-0.043 0.003 0 0.006 0 0.009 0l-0-0h2.752c0.042 0 0.076 0.009 0.109 0.044zM82.351 26.191c0.034 0.035 0.051 0.069 0.051 0.112v3.702c0 0.042-0.017 0.077-0.051 0.111-0.025 0.027-0.061 0.044-0.101 0.044-0.003 0-0.006-0-0.009-0l0 0h-0.244c-0.042-0.002-0.081-0.018-0.11-0.044l0 0c-0.031-0.028-0.050-0.068-0.051-0.112v-1.618h-2.068v1.618c0 0.044-0.017 0.078-0.051 0.112-0.025 0.027-0.061 0.044-0.1 0.044-0.003 0-0.006-0-0.009-0l0 0h-0.236c-0 0-0.001 0-0.001 0-0.042 0-0.081-0.017-0.109-0.044l0 0c-0.031-0.026-0.051-0.064-0.051-0.108 0-0.002 0-0.003 0-0.005v0-3.701c0-0.043 0.017-0.077 0.051-0.112 0.025-0.027 0.061-0.043 0.1-0.043 0.003 0 0.007 0 0.010 0l-0-0h0.236c0.042 0 0.076 0.017 0.109 0.044 0.034 0.034 0.051 0.068 0.051 0.111v1.575h2.068v-1.575c0-0.043 0.017-0.077 0.051-0.112 0.025-0.027 0.061-0.043 0.1-0.043 0.003 0 0.007 0 0.010 0l-0-0h0.244c0.034 0 0.076 0.009 0.11 0.044zM90.393 28.057c0.042 0 0.068 0.017 0.101 0.043 0.021 0.020 0.034 0.048 0.034 0.079 0 0.002-0 0.005-0 0.007v-0c-0.008 0.181-0.050 0.378-0.127 0.603-0.068 0.215-0.177 0.422-0.312 0.611l0.608 0.585c0.020 0.020 0.033 0.047 0.033 0.077v0c0 0.001 0 0.003 0 0.004 0 0.027-0.013 0.050-0.033 0.065l-0 0c-0.020 0.016-0.045 0.026-0.073 0.026-0.001 0-0.002 0-0.003-0h-0.43c-0.031-0.001-0.059-0.007-0.086-0.017l0.002 0.001c-0.017-0.009-0.042-0.026-0.068-0.044l-0.329-0.318c-0.346 0.284-0.76 0.43-1.258 0.43-0.007 0-0.014 0-0.022 0-0.241 0-0.471-0.047-0.682-0.133l0.012 0.004c-0.2-0.077-0.366-0.205-0.487-0.368l-0.002-0.003c-0.111-0.156-0.178-0.351-0.178-0.562 0-0.008 0-0.016 0-0.024l-0 0.001c0-0.233 0.076-0.431 0.22-0.611 0.143-0.172 0.337-0.345 0.582-0.5-0.211-0.223-0.354-0.404-0.422-0.542-0.069-0.128-0.11-0.279-0.11-0.44 0-0.006 0-0.011 0-0.017v0.001c0-0.199 0.060-0.362 0.169-0.508 0.11-0.137 0.254-0.249 0.423-0.327 0.15-0.070 0.327-0.111 0.513-0.111 0.001 0 0.002 0 0.002 0h-0c0.169 0 0.337 0.043 0.506 0.12s0.304 0.189 0.405 0.327c0.11 0.138 0.161 0.31 0.161 0.491 0 0.215-0.068 0.413-0.203 0.585-0.162 0.199-0.351 0.368-0.564 0.503l-0.010 0.006 0.895 0.869c0.127-0.215 0.228-0.482 0.295-0.8 0-0.035 0.025-0.060 0.059-0.087 0.027-0.021 0.062-0.034 0.099-0.034 0.001 0 0.002 0 0.003 0h0.278v0.009zM88.3 28.409c-0.176 0.105-0.328 0.222-0.466 0.354l0.001-0.001c-0.104 0.090-0.169 0.222-0.169 0.369 0 0 0 0.001 0 0.001v-0c0 0.18 0.084 0.327 0.245 0.422s0.346 0.146 0.557 0.146c0.329 0 0.616-0.103 0.852-0.301l-1.021-0.99zM88.832 27.42c0.099-0.097 0.16-0.231 0.16-0.38 0-0.003-0-0.005-0-0.008v0c-0.005-0.119-0.063-0.224-0.151-0.292l-0.001-0.001c-0.096-0.086-0.222-0.138-0.362-0.138-0 0-0.001 0-0.001 0h0c-0.001 0-0.001 0-0.002 0-0.146 0-0.28 0.049-0.388 0.131l0.002-0.001c-0.109 0.086-0.169 0.189-0.169 0.301 0.002 0.113 0.037 0.217 0.094 0.304l-0.001-0.002c0.059 0.095 0.185 0.232 0.363 0.412 0.174-0.095 0.323-0.203 0.457-0.328l-0.001 0.001zM95.22 26.303c0-0.043 0.017-0.077 0.050-0.112 0.025-0.027 0.061-0.043 0.101-0.043 0.003 0 0.006 0 0.010 0l-0-0h1.57c0.312 0 0.557 0.060 0.751 0.172 0.194 0.121 0.329 0.258 0.413 0.422s0.127 0.327 0.127 0.481c0 0.215-0.051 0.388-0.161 0.516-0.101 0.129-0.211 0.233-0.312 0.293 0.16 0.103 0.295 0.241 0.405 0.413 0.101 0.164 0.152 0.353 0.152 0.551s-0.051 0.387-0.152 0.567c-0.102 0.182-0.245 0.319-0.439 0.431s-0.431 0.164-0.7 0.164h-1.655c-0.042-0.001-0.080-0.017-0.11-0.043l0 0c-0.031-0.028-0.050-0.068-0.050-0.112v-3.701zM95.777 27.817h1.114c0.261 0 0.455-0.051 0.582-0.146 0.135-0.103 0.203-0.241 0.203-0.431s-0.068-0.327-0.203-0.431c-0.135-0.103-0.329-0.145-0.582-0.145h-1.114v1.153zM95.777 29.643h1.199c0.253 0 0.447-0.061 0.582-0.19 0.13-0.111 0.212-0.275 0.212-0.458 0-0.003-0-0.005-0-0.008v0c0-0.003 0-0.007 0-0.012 0-0.182-0.078-0.346-0.203-0.461l-0-0c-0.135-0.129-0.329-0.189-0.591-0.189h-1.199v1.316zM103.549 29.642h1.967c0.042 0 0.076 0.017 0.11 0.044 0.034 0.034 0.051 0.068 0.051 0.111v0.207c0 0.044-0.017 0.078-0.051 0.112-0.025 0.027-0.061 0.044-0.101 0.044-0.003 0-0.006-0-0.009-0l0 0h-2.372c-0 0-0.001 0-0.001 0-0.087 0-0.157-0.069-0.159-0.155v-3.701c0-0.043 0.017-0.077 0.050-0.112 0.025-0.027 0.061-0.043 0.101-0.043 0.003 0 0.006 0 0.010 0l-0-0h2.321c0.042 0 0.076 0.017 0.109 0.044 0.034 0.034 0.051 0.068 0.051 0.111v0.207c0 0.044-0.017 0.078-0.051 0.112-0.025 0.027-0.061 0.044-0.1 0.044-0.003 0-0.006-0-0.009-0l0 0h-1.924v1.213h1.797c0.042 0.001 0.081 0.018 0.11 0.044l-0-0c0.034 0.033 0.051 0.068 0.051 0.111v0.207c0 0.044-0.017 0.077-0.051 0.112-0.025 0.027-0.060 0.043-0.1 0.043-0.004 0-0.007-0-0.010-0l0 0h-1.797v1.248h0.008zM110.81 29.249l-0.304 0.766c-0.033 0.095-0.11 0.146-0.228 0.146h-0.22c-0.002 0-0.004 0-0.007 0-0.033 0-0.063-0.013-0.086-0.034l0 0c-0.025-0.026-0.042-0.052-0.042-0.087 0-0.017 0.008-0.043 0.025-0.077l1.435-3.615c0.051-0.129 0.135-0.19 0.262-0.19h0.354c0.127 0 0.212 0.060 0.262 0.189l1.427 3.615c0.013 0.022 0.022 0.049 0.025 0.077l0 0.001c0 0.035-0.017 0.060-0.042 0.087-0.022 0.021-0.052 0.034-0.086 0.034-0.002 0-0.005-0-0.007-0h-0.219c-0.119 0-0.194-0.052-0.228-0.146l-0.304-0.766h-2.017zM112.633 28.733l-0.81-2.049-0.819 2.048h1.629zM121.181 26.191c0.034 0.035 0.051 0.069 0.051 0.112v2.289c0 0.5-0.127 0.895-0.388 1.188s-0.658 0.439-1.19 0.439c-0.54 0-0.937-0.146-1.191-0.439s-0.38-0.688-0.38-1.188v-2.289c0-0.043 0.017-0.077 0.051-0.112 0.025-0.027 0.061-0.043 0.1-0.043 0.003 0 0.007 0 0.010 0l-0-0h0.236c0.042 0 0.076 0.017 0.11 0.044 0.026 0.026 0.042 0.063 0.042 0.103 0 0.003-0 0.006-0 0.009l0-0v2.324c0 0.369 0.092 0.645 0.27 0.826 0.177 0.189 0.431 0.275 0.751 0.275s0.574-0.095 0.759-0.275c0.177-0.181 0.271-0.465 0.271-0.826v-2.324c0-0.043 0.017-0.077 0.050-0.112 0.025-0.027 0.061-0.043 0.101-0.043 0.003 0 0.006 0 0.010 0l-0-0h0.236c0.001-0 0.002-0 0.003-0 0.039 0 0.074 0.017 0.097 0.044l0 0zM128.717 26.191c0.031 0.028 0.050 0.068 0.050 0.112v0.207c-0 0.044-0.020 0.084-0.050 0.112l-0 0c-0.025 0.027-0.061 0.044-0.101 0.044-0.003 0-0.006-0-0.009-0l0 0h-1.097v3.339c0 0.044-0.017 0.078-0.050 0.112-0.025 0.027-0.061 0.044-0.101 0.044-0.003 0-0.006-0-0.009-0l0 0h-0.236c-0.042-0.002-0.081-0.018-0.11-0.044l0 0c-0.031-0.028-0.051-0.067-0.051-0.112v-3.34h-1.097c-0.042-0.001-0.081-0.017-0.11-0.043l0 0c-0.031-0.028-0.051-0.067-0.051-0.112v-0.207c0-0.043 0.017-0.077 0.051-0.112 0.025-0.027 0.061-0.043 0.1-0.043 0.003 0 0.007 0 0.010 0l-0-0h2.751c0.042 0 0.076 0.009 0.11 0.044zM134.883 30.104c-0.025 0.027-0.061 0.044-0.101 0.044-0.003 0-0.006-0-0.009-0l0 0h-0.236c-0 0-0 0-0.001 0-0.042 0-0.080-0.017-0.108-0.044l0 0c-0.031-0.028-0.051-0.067-0.051-0.112v-1.334l-1.401-2.307c-0.013-0.022-0.022-0.048-0.025-0.076l-0-0.001c-0-0.002-0-0.005-0-0.008 0-0.033 0.017-0.062 0.042-0.079l0-0c0.022-0.021 0.052-0.034 0.086-0.034 0.002 0 0.005 0 0.007 0h0.253c0.068 0 0.119 0.009 0.152 0.034s0.060 0.060 0.093 0.103l1.081 1.825 1.089-1.825c0.025-0.041 0.055-0.075 0.091-0.103l0.001-0.001c0.034-0.025 0.084-0.034 0.152-0.034h0.253c0.034 0 0.068 0.009 0.093 0.034s0.042 0.052 0.042 0.087c-0.004 0.029-0.013 0.055-0.026 0.078l0.001-0.001-1.435 2.307v1.343c0 0.044-0.017 0.078-0.042 0.103z"></path>
</symbol>


<symbol id="icon-clock-check" viewBox="0 0 32 32">
<path stroke-linejoin="round" stroke-linecap="round" stroke-miterlimit="4" stroke-width="1.3333" d="M19.333 25.333l2.667 2.667 6-6M29.313 16.733c0.013-0.243 0.020-0.488 0.020-0.733 0-7.364-5.969-13.333-13.333-13.333s-13.333 5.969-13.333 13.333c0 7.247 5.783 13.144 12.985 13.329M16 8v8l4.984 2.493"></path>
</symbol>

<symbol id="icon-marker-pin" viewBox="0 0 32 32">
<path stroke-linejoin="round" stroke-linecap="round" stroke-miterlimit="4" stroke-width="1.3333" d="M16 30.667c1.5-7.333 12-8.187 12-17.6 0-6.48-5.373-11.733-12-11.733s-12 5.253-12 11.733c0 9.413 10.5 10.267 12 17.6z"></path>
<path stroke-linejoin="round" stroke-linecap="round" stroke-miterlimit="4" stroke-width="1.3333" d="M16 17.467c2.485 0 4.5-1.969 4.5-4.4s-2.015-4.4-4.5-4.4-4.5 1.969-4.5 4.4c0 2.429 2.015 4.4 4.5 4.4z"></path>
</symbol>



<symbol id="icon-close" viewBox="0 0 38 32">
<path stroke-linejoin="miter" stroke-linecap="round" stroke-miterlimit="4" stroke-width="3.6364" d="M2.909 2.909l32.237 26.864M35.145 2.909l-32.236 26.864"></path>
</symbol>


<symbol id="icon-search" viewBox="0 0 32 32">
<path stroke-linejoin="round" stroke-linecap="round" stroke-miterlimit="4" stroke-width="2.4615" d="M28 28l-5.799-5.799M25.333 14.667c0 0.034 0.001 0.074 0.001 0.115 0 5.891-4.776 10.667-10.667 10.667s-10.667-4.776-10.667-10.667c0-0.040 0-0.081 0.001-0.121l-0 0.006c0.065-5.842 4.815-10.553 10.666-10.553s10.602 4.711 10.666 10.546l0 0.006z"></path>
</symbol>

<symbol id="icon-instagram" viewBox="0 0 32 32">
<path d="M27.819 11.075c-0.015-1.048-0.215-2.046-0.57-2.966l0.020 0.059c-0.628-1.591-1.864-2.827-3.414-3.441l-0.041-0.014c-0.85-0.329-1.833-0.529-2.859-0.551l-0.009-0c-1.262-0.057-1.662-0.072-4.867-0.072-3.204 0-3.615 0-4.868 0.072-0.981 0.021-1.949 0.206-2.867 0.551-1.591 0.628-2.827 1.864-3.441 3.414l-0.014 0.041c-0.33 0.849-0.53 1.832-0.55 2.858l-0 0.009c-0.057 1.265-0.073 1.664-0.073 4.868 0 3.205 0 3.614 0.073 4.869 0.021 0.981 0.204 1.95 0.55 2.87 0.629 1.59 1.865 2.825 3.415 3.439l0.041 0.014c0.846 0.342 1.827 0.555 2.852 0.59l0.014 0c1.265 0.057 1.664 0.074 4.869 0.074 3.204 0 3.615 0 4.868-0.074 1.036-0.021 2.019-0.22 2.928-0.569l-0.059 0.020c1.59-0.629 2.825-1.865 3.44-3.414l0.014-0.041c0.329-0.85 0.529-1.834 0.55-2.861l0-0.009c0.057-1.262 0.073-1.662 0.073-4.868-0.002-3.205-0.002-3.612-0.075-4.867zM16.071 21.962c-0.001 0-0.001 0-0.002 0-3.349 0-6.065-2.715-6.065-6.065 0-0.001 0-0.001 0-0.002v0c0-0.001 0-0.002 0-0.004 0-3.349 2.715-6.065 6.065-6.065 1.676 0 3.193 0.68 4.291 1.779l0 0c1.097 1.098 1.776 2.614 1.776 4.289 0 3.35-2.715 6.066-6.065 6.067h-0zM22.378 11.020c-0.002 0-0.004 0-0.007 0-0.78 0-1.412-0.632-1.412-1.412 0-0.392 0.16-0.747 0.418-1.003l0-0c0.256-0.255 0.609-0.413 0.999-0.413 0.781 0 1.414 0.633 1.414 1.414s-0.632 1.413-1.411 1.414h-0z"></path>
<path d="M16.072 19.84c2.176 0 3.94-1.764 3.94-3.94s-1.764-3.94-3.94-3.94v0c-2.176 0-3.941 1.764-3.941 3.941s1.764 3.941 3.941 3.941v0z"></path>
</symbol>


<symbol id="icon-arrow" viewBox="0 0 52 32">
<path stroke-linejoin="miter" stroke-linecap="round" stroke-miterlimit="4" stroke-width="4" d="M2 2l24 24 24-24"></path>
</symbol>


<symbol id="icon-arrow-fat" viewBox="0 0 21 32">
<path fill="none" stroke="inherit"  stroke-linejoin="miter" stroke-linecap="round" stroke-miterlimit="4" stroke-width="4.5714" d="M2.286 29.714l13.714-13.714-13.714-13.714"></path>
</symbol>

<symbol id="icon-longArrow" viewBox="0 0 31 32">
<path d="M16.506 25.265c-0.173-0.173-0.28-0.411-0.28-0.675s0.107-0.502 0.28-0.675l6.961-6.961h-18.695c-0.505-0.029-0.903-0.445-0.903-0.954s0.398-0.925 0.9-0.954l0.003-0h18.695l-6.961-6.961c-0.158-0.17-0.255-0.399-0.255-0.65 0-0.528 0.428-0.956 0.956-0.956 0.252 0 0.481 0.097 0.651 0.256l-0.001-0.001 8.599 8.601c0.018 0.018 0.036 0.037 0.053 0.057l0.001 0.001 0.028 0.038 0.029 0.039 0.025 0.042 0.022 0.038 0.022 0.044 0.019 0.041 0.015 0.044 0.017 0.044 0.010 0.044 0.012 0.048c0.004 0.016 0.006 0.033 0.009 0.049 0 0.015 0.004 0.029 0.006 0.044 0.003 0.028 0.005 0.061 0.005 0.094s-0.002 0.066-0.005 0.098l0-0.004-0.006 0.042c-0.003 0.016-0.004 0.033-0.009 0.049l-0.012 0.048-0.010 0.044-0.032 0.087-0.019 0.041-0.022 0.044c-0.006 0.015-0.015 0.026-0.022 0.038l-0.026 0.044-0.029 0.038c-0.009 0.013-0.016 0.025-0.026 0.036-0.018 0.022-0.037 0.042-0.055 0.061l0-0-0.007 0.009-8.591 8.591c-0.173 0.173-0.412 0.279-0.676 0.279s-0.503-0.107-0.676-0.279l0 0z"></path>
</symbol>


<symbol id="icon-telegram" viewBox="0 0 33 32">
<path d="M16.474 31.89c-8.806 0-15.945-7.139-15.945-15.945s7.139-15.945 15.945-15.945c8.806 0 15.945 7.139 15.945 15.945 0 8.805-7.139 15.945-15.945 15.945zM5.811 15.133c-0.138 0.055-0.234 0.186-0.236 0.34v0c0 0.147 0.097 0.287 0.236 0.339l4.329 1.58 8.922-4.605c0.027-0.013 0.060-0.021 0.094-0.021 0.075 0 0.141 0.037 0.181 0.093l0 0.001c0.022 0.034 0.036 0.076 0.036 0.121 0 0.063-0.026 0.12-0.068 0.16l-0 0-6.003 5.386 6.726 5.417c0.060 0.042 0.134 0.068 0.214 0.068 0.045 0 0.088-0.008 0.128-0.022l-0.003 0.001c0.112-0.044 0.196-0.138 0.225-0.253l0.001-0.003 3.564-14.986c0.006-0.025 0.009-0.053 0.009-0.082 0-0.109-0.047-0.206-0.122-0.274l-0-0c-0.064-0.056-0.148-0.089-0.241-0.089-0.046 0-0.090 0.008-0.13 0.024l0.003-0.001-17.864 6.807z"></path>
</symbol>


<symbol id="icon-viber-color" viewBox="0 0 30 32">
<path fill="#inherit"  d="M14.049 1.106c-6.888 0.032-9.983 2.279-10.75 2.982-2.541 2.207-3.951 7.1-3.003 14.828 0.833 6.827 5.595 8.038 7.194 8.444 0.155 0.040 0.282 0.071 0.371 0.101 0.43 0.139 4.236 1.090 9.179 0.676 0.545 0.633 1.272 1.465 1.794 2.029 0.158 0.171 0.306 0.339 0.447 0.499 0.715 0.813 1.262 1.434 2.097 1.176 0.827-0.255 0.782-1.512 0.782-1.512l-0.006-3.103h0.005c7.233-2.035 7.127-9.531 7.044-13.535-0.079-4.006-0.856-7.233-3.061-9.439-3.962-3.636-12.092-3.145-12.092-3.145z"></path>
<path fill="#de6682"  d="M8.309 25.207c-1.357-0.315-5.15-1.196-5.85-6.839-0.8-6.456 0.296-10.862 2.441-12.708 0.649-0.588 3.443-2.342 9.274-2.368 0 0 6.904-0.453 10.257 2.58 1.863 1.841 2.492 4.578 2.561 7.922l0.008 0.34c0.078 3.419 0.216 9.446-5.696 11.086 0 0 0.024 4.741 0.028 5.156 0 0.293-0.047 0.491-0.213 0.533-0.12 0.032-0.3-0.033-0.453-0.186-0.977-0.984-4.107-4.757-4.107-4.757-4.199 0.277-7.538-0.556-7.898-0.671-0.083-0.027-0.203-0.055-0.352-0.089z"></path>
<path fill="#inherit"  d="M10.825 13.506c-0.001 0.009-0.001 0.019-0.001 0.029 0 0.215 0.175 0.39 0.39 0.39 0.212 0 0.385-0.17 0.39-0.381v-0c0.065-1.332 0.684-1.971 1.963-2.039 0.209-0.008 0.375-0.18 0.375-0.39 0-0.215-0.175-0.39-0.39-0.39-0.009 0-0.018 0-0.028 0.001l0.001-0c-1.683 0.090-2.616 1.052-2.7 2.779z"></path>
<path fill="#inherit"  d="M9.227 14.586c-0.003 0-0.006 0-0.010 0-0.212 0-0.385-0.169-0.39-0.38v-0.001c-0.034-1.524 0.422-2.81 1.37-3.842 0.949-1.035 2.26-1.608 3.917-1.726 0.012-0.001 0.026-0.002 0.040-0.002 0.215 0 0.39 0.175 0.39 0.39 0 0.21-0.166 0.381-0.373 0.39l-0.001 0c-1.47 0.104-2.591 0.595-3.398 1.474-0.808 0.881-1.195 1.971-1.165 3.298 0 0.002 0 0.005 0 0.008 0 0.212-0.169 0.385-0.38 0.39h-0.001z"></path>
<path fill="#inherit"  d="M6.779 14.993c0 0.001-0 0.002-0 0.004 0 0.215 0.175 0.39 0.39 0.39 0.214 0 0.388-0.173 0.39-0.386v-0c0.018-2.373 0.717-4.216 2.098-5.564 1.383-1.35 3.105-2.031 5.172-2.044 0.214-0.001 0.388-0.175 0.388-0.39s-0.175-0.39-0.39-0.39c-0.001 0-0.002 0-0.002 0h0c-2.266 0.014-4.181 0.773-5.713 2.266-1.537 1.503-2.313 3.546-2.332 6.116zM12.626 18.427c0.292 0.366 0.841 0.32 0.841 0.32 4.005-1.023 5.077-5.079 5.077-5.079s0.047-0.545-0.32-0.841l-0.721-0.574c-0.36-0.277-0.587-0.948-0.222-1.605 0.204-0.365 0.61-1.017 0.911-1.428 0.319-0.435 1.058-1.323 1.063-1.327 0.356-0.425 0.883-0.521 1.438-0.236 0.573 0.33 1.062 0.73 1.479 1.196l0.005 0.006 0.011 0.009c0.341 0.412 0.54 0.818 0.587 1.216 0.009 0.047 0.014 0.107 0.009 0.177 0.005 0.175-0.024 0.346-0.078 0.518l-0.019 0.013c-0.171 0.616-0.606 1.638-1.544 3.343-0.588 1.070-1.202 1.988-1.886 2.849l0.031-0.041c-0.366 0.461-0.732 0.873-1.12 1.263l0.001-0.001-0.166 0.166c-0.43 0.427-0.851 0.795-1.263 1.12-0.819 0.654-1.737 1.267-2.705 1.802l-0.101 0.051c-1.707 0.939-2.728 1.375-3.343 1.544l-0.014 0.019c-0.15 0.050-0.324 0.078-0.503 0.078-0.005 0-0.010-0-0.015-0h0.001c-0.017 0.001-0.036 0.002-0.056 0.002-0.042 0-0.084-0.004-0.124-0.011l0.004 0.001c-0.397-0.047-0.805-0.245-1.216-0.588l-0.009-0.009c-0.468-0.42-0.866-0.906-1.182-1.446l-0.015-0.028s-0.005-0.005-0.005-0.009c-0.287-0.555-0.19-1.082 0.236-1.439 0 0 0.892-0.744 1.327-1.063 0.407-0.301 1.063-0.703 1.428-0.911 0.657-0.365 1.327-0.139 1.605 0.223l0.574 0.721z"></path>
</symbol>

<symbol id="icon-viber-color-light" viewBox="0 0 31 32">
<path fill="#inherit"  d="M14.591 0.023c-7.154 0.033-10.367 2.367-11.164 3.097-2.636 2.29-4.101 7.372-3.116 15.397 0.865 7.089 5.81 8.347 7.471 8.769 0.161 0.041 0.293 0.074 0.385 0.105 0.447 0.144 4.399 1.132 9.532 0.702 0.566 0.657 1.321 1.521 1.863 2.107 0.164 0.177 0.318 0.352 0.464 0.518 0.742 0.844 1.311 1.489 2.177 1.221 0.859-0.265 0.812-1.57 0.812-1.57l-0.006-3.222h0.005c7.511-2.113 7.401-9.898 7.314-14.055-0.082-4.16-0.889-7.511-3.179-9.802-4.116-3.775-12.559-3.265-12.559-3.265z"></path>
<path fill="#f3eaed" d="M8.63 25.051c-1.409-0.327-5.348-1.242-6.075-7.102-0.831-6.704 0.308-11.28 2.535-13.196 0.673-0.61 3.574-2.431 9.63-2.459 0 0 7.169-0.47 10.651 2.679 1.935 1.911 2.588 4.754 2.66 8.226l0.009 0.353c0.081 3.551 0.224 9.809-5.915 11.513 0 0 0.025 4.923 0.030 5.354 0 0.303-0.049 0.51-0.222 0.554-0.124 0.033-0.311-0.034-0.47-0.193-1.013-1.022-4.265-4.942-4.265-4.942-4.361 0.289-7.828-0.576-8.202-0.695-0.086-0.028-0.21-0.057-0.366-0.092z"></path>
<path fill="#inherit"  d="M11.243 12.901c-0 0.003-0 0.006-0 0.009 0 0.224 0.181 0.405 0.405 0.405 0.213 0 0.388-0.164 0.404-0.373l0-0.001c0.068-1.383 0.71-2.047 2.038-2.117 0.217-0.009 0.389-0.187 0.389-0.405 0-0.224-0.181-0.405-0.405-0.405-0.010 0-0.019 0-0.029 0.001l0.001-0c-1.748 0.094-2.716 1.093-2.804 2.886z"></path>
<path fill="#inherit"  d="M9.583 14.022c-0.003 0-0.006 0-0.010 0-0.221 0-0.4-0.176-0.405-0.396v-0c-0.036-1.582 0.438-2.917 1.423-3.989 0.986-1.074 2.346-1.67 4.068-1.792 0.005-0 0.011-0 0.016-0 0.224 0 0.405 0.181 0.405 0.405 0 0.209-0.158 0.381-0.362 0.403l-0.002 0c-1.526 0.108-2.69 0.618-3.529 1.531-0.839 0.914-1.241 2.047-1.21 3.425 0 0.003 0 0.006 0 0.009 0 0.22-0.176 0.399-0.395 0.405h-0.001z"></path>
<path fill="#inherit"  d="M7.040 14.446c0 0.001 0 0.002 0 0.003 0 0.224 0.182 0.406 0.406 0.406 0.223 0 0.404-0.18 0.406-0.402v-0c0.018-2.464 0.745-4.378 2.178-5.778 1.436-1.402 3.225-2.11 5.371-2.123 0.223-0.001 0.402-0.182 0.402-0.405s-0.181-0.405-0.405-0.405c-0.001 0-0.002 0-0.003 0h0c-2.353 0.015-4.342 0.802-5.932 2.353-1.596 1.561-2.402 3.682-2.422 6.351zM13.113 18.011c0.303 0.379 0.874 0.332 0.874 0.332 4.159-1.062 5.273-5.274 5.273-5.274s0.049-0.566-0.332-0.874l-0.748-0.596c-0.374-0.288-0.609-0.985-0.23-1.666 0.212-0.379 0.634-1.056 0.945-1.483 0.332-0.452 1.1-1.374 1.105-1.378 0.369-0.442 0.917-0.543 1.493-0.245 0.595 0.343 1.104 0.758 1.537 1.242l0.005 0.006 0.010 0.010c0.354 0.427 0.561 0.849 0.609 1.263 0.010 0.049 0.015 0.111 0.010 0.183 0.005 0.182-0.025 0.359-0.081 0.538l-0.020 0.014c-0.177 0.64-0.629 1.701-1.604 3.472-0.611 1.111-1.249 2.065-1.959 2.958l0.033-0.043c-0.336 0.427-0.72 0.864-1.162 1.311l-0.172 0.172c-0.405 0.402-0.832 0.783-1.28 1.139l-0.032 0.024c-0.851 0.679-1.804 1.316-2.809 1.872l-0.105 0.053c-1.772 0.975-2.833 1.426-3.472 1.604l-0.015 0.020c-0.156 0.052-0.336 0.081-0.523 0.081-0.005 0-0.011-0-0.016-0h0.001c-0.016 0.001-0.034 0.002-0.053 0.002-0.046 0-0.090-0.004-0.133-0.013l0.004 0.001c-0.412-0.047-0.836-0.254-1.263-0.609l-0.010-0.010c-0.486-0.436-0.9-0.941-1.227-1.502l-0.016-0.029s-0.005-0.005-0.005-0.010c-0.298-0.576-0.197-1.124 0.245-1.494 0 0 0.927-0.773 1.378-1.104 0.422-0.313 1.104-0.73 1.483-0.946 0.682-0.379 1.378-0.144 1.666 0.231l0.596 0.748z"></path>
</symbol>


<symbol id="icon-arrowUpRight" viewBox="0 0 32 32">
<path d="M24.8 8.169c-0-0.033-0.002-0.066-0.005-0.098l0 0.004-0.006-0.044-0.008-0.051c-0.002-0.017-0.007-0.032-0.012-0.049l-0.012-0.044c-0.004-0.017-0.009-0.032-0.015-0.047l-0.017-0.043-0.019-0.043-0.021-0.045-0.024-0.038-0.026-0.044-0.030-0.040-0.027-0.036c-0.019-0.024-0.038-0.045-0.058-0.065l0 0-0.006-0.007-0.009-0.008c-0.020-0.019-0.040-0.038-0.061-0.056l-0.002-0.001-0.036-0.026-0.041-0.031c-0.013-0.009-0.028-0.017-0.043-0.026l-0.039-0.024-0.044-0.020-0.043-0.020-0.041-0.015-0.050-0.017c-0.012-0.005-0.026-0.007-0.040-0.011-0.017-0.005-0.034-0.009-0.052-0.012l-0.045-0.008-0.050-0.007c-0.022-0.002-0.048-0.003-0.074-0.004h-12.733c-0.54 0-0.978 0.438-0.978 0.978s0.438 0.978 0.978 0.978v0h10.35l-13.975 13.972c-0.177 0.177-0.287 0.422-0.287 0.692 0 0.54 0.438 0.978 0.978 0.978 0.27 0 0.515-0.109 0.692-0.286l13.975-13.975v10.35c0 0.54 0.438 0.978 0.978 0.978s0.978-0.438 0.978-0.978v-12.713z"></path>
</symbol>


<symbol id="icon-heart" viewBox="0 0 32 32">
<path fill="inherit" stroke="inherit" stroke-linejoin="round" stroke-linecap="round" stroke-miterlimit="4" stroke-width="2.6667" d="M15.991 6.848c-2.667-3.117-7.111-3.955-10.451-1.101s-3.811 7.625-1.187 11c2.18 2.807 8.78 8.725 10.943 10.64 0.243 0.216 0.363 0.323 0.504 0.365 0.057 0.018 0.123 0.028 0.191 0.028s0.134-0.010 0.195-0.029l-0.005 0.001c0.141-0.043 0.263-0.149 0.504-0.364 2.164-1.916 8.764-7.835 10.944-10.64 2.623-3.376 2.211-8.177-1.187-11.001-3.399-2.824-7.787-2.016-10.452 1.101z"></path>
</symbol>


<symbol id="icon-mini-logo" viewBox="0 0 34 32">
<path fill="inherit" d="M28.715 5.806c0.008-0.009 0.008-0.009 0.017-0.017-2.858-3.526-7.175-5.789-12.019-5.789-4.836 0-9.153 2.245-12.011 5.772 0.008 0.009 0.008 0.009 0.017 0.017 0.478 0.393 0.989 0.794 1.542 1.187 0.017 0.009 0.025 0.017 0.042 0.026 2.498-3.039 6.236-4.978 10.419-4.978s7.929 1.947 10.427 4.986c0.008-0.009 0.025-0.017 0.042-0.026 0.536-0.393 1.056-0.794 1.526-1.178z"></path>
<path fill="inherit" d="M19.874 8.179c0-1.836-1.459-3.322-3.261-3.322s-3.261 1.486-3.261 3.322c0 1.836 1.459 3.322 3.261 3.322s3.261-1.494 3.261-3.322z"></path>
<path fill="inherit" d="M0.914 3.036c0 0-2.28 5.413 0.36 10.672 0.461 0.905 1.064 1.81 1.852 2.681 0.83 0.914 1.861 1.793 3.143 2.596 3.73 2.339 8.063 2.493 8.063 7.616v2.877c-0.319-0.051-0.612-0.111-0.88-0.171-5.281-1.323-9.346-5.797-10.167-11.347-0.31-0.29-0.612-0.581-0.888-0.888-0.469-0.512-0.88-1.059-1.257-1.622 0 0.145-0.017 0.29-0.017 0.435 0 6.446 3.772 11.987 9.186 14.472 1.006 0.461 2.070 0.82 3.177 1.050v-0.017c0.302 0.068 0.587 0.128 0.847 0.179 0.008 0 0.008 0 0.017 0 1.232 0.213 1.911 0.171 1.911 0.171v-5.055c0-0.341-0.017-0.666-0.042-0.982-0.469-5.601-4.945-7.3-8.742-10.51-1.693-1.434-2.841-2.766-3.613-3.834-0.763-1.059-1.148-1.836-1.291-2.16-0.050-0.111-0.075-0.179-0.075-0.179s0.034 0.051 0.092 0.137c0.184 0.265 0.654 0.914 1.417 1.784 1.207 1.366 3.152 3.253 5.892 4.995 5.079 3.219 6.119 5.669 6.295 6.181 0.025 0.068 0.034 0.102 0.034 0.102s0.151-0.973 0-2.408c-0.268-2.544-1.509-6.566-6.303-9.298-1.718-0.982-3.118-1.887-4.25-2.698-0.604-0.435-1.132-0.845-1.593-1.229-2.699-2.228-3.168-3.552-3.168-3.552z"></path>
<path fill="inherit" d="M31.012 17.106c-0.277 0.299-0.57 0.589-0.88 0.871l-0.008 0.009c-0.034 0.222-0.067 0.444-0.109 0.657-0.008 0.034-0.008 0.060-0.017 0.094-0.067 0.341-0.159 0.683-0.251 1.016-0.008 0.026-0.017 0.060-0.025 0.085-0.101 0.333-0.21 0.666-0.335 0.99-0.008 0.017-0.017 0.043-0.025 0.060-0.126 0.333-0.268 0.666-0.419 0.99 0 0 0 0.008-0.008 0.008-0.101 0.222-0.21 0.435-0.327 0.64-0.017 0.034-0.042 0.068-0.059 0.111-0.101 0.179-0.201 0.358-0.31 0.538-0.017 0.026-0.034 0.060-0.050 0.085-0.126 0.196-0.252 0.393-0.386 0.581-1.861 2.672-4.635 4.645-7.845 5.456-0.285 0.068-0.587 0.128-0.914 0.179v-2.877c0-5.123 4.4-5.276 8.13-7.616 1.266-0.794 2.288-1.665 3.118-2.57 0.788-0.862 1.4-1.767 1.861-2.672 2.674-5.268 0.386-10.706 0.386-10.706s-0.469 1.323-3.185 3.569c-0.461 0.384-0.989 0.794-1.593 1.229-1.132 0.811-2.523 1.716-4.233 2.689-4.786 2.732-6.026 6.745-6.303 9.298-0.151 1.443 0 2.408 0 2.408s0.008-0.034 0.034-0.102c0.168-0.512 1.207-2.963 6.295-6.181 2.724-1.725 4.66-3.612 5.876-4.969 0.754-0.845 1.224-1.503 1.425-1.784 0.067-0.102 0.109-0.162 0.109-0.162s-0.025 0.077-0.084 0.205c-0.151 0.342-0.536 1.118-1.291 2.16-0.771 1.059-1.911 2.382-3.596 3.808-3.797 3.219-8.273 4.909-8.742 10.51-0.025 0.316-0.042 0.64-0.042 0.982v5.054c0.008 0 0.008 0 0.017 0 0.168 0.009 0.805 0.017 1.836-0.171h0.008c0.277-0.051 0.587-0.111 0.914-0.188v0.008c1.048-0.23 2.062-0.563 3.017-0.99 0.042-0.017 0.075-0.026 0.117-0.043 5.423-2.485 9.195-8.026 9.195-14.463 0-0.137-0.008-0.265-0.017-0.401-0.402 0.546-0.813 1.093-1.282 1.605z"></path>
</symbol>



<symbol id="icon-check-heart" viewBox="0 0 34 32">
<path stroke-linejoin="round" stroke-linecap="round" stroke-miterlimit="4" stroke-width="1.6" d="M12.776 14.667l2.666 2.666 6-6M16.768 6.848c-2.666-3.117-7.112-3.955-10.451-1.101-3.341 2.853-3.81 7.624-1.187 11 1.981 2.549 7.61 7.667 10.245 10.019 0.485 0.432 0.726 0.648 1.011 0.734 0.114 0.035 0.246 0.055 0.382 0.055s0.268-0.020 0.392-0.058l-0.010 0.003c0.285-0.086 0.528-0.302 1.011-0.734 2.635-2.352 8.264-7.47 10.245-10.019 2.624-3.376 2.21-8.176-1.187-11s-7.786-2.016-10.451 1.101z"></path>
</symbol>


<symbol id="icon-check" viewBox="0 0 34 32">
<path fill="none" stroke="#fff" style="stroke: var(--color1, #fff)" stroke-linejoin="round" stroke-linecap="round" stroke-miterlimit="4" stroke-width="1.8824" d="M28.373 8l-14.669 14.667-6.665-6.667"></path>
</symbol>


<symbol id="icon-listik" viewBox="0 0 26 32">
<path d="M4.148 9.388l0.029-0.067c-0.026-0.034-0.075-0.101-0.123-0.169l-0.026-0.038s0.041 0.105 0.119 0.273z"></path>
<path d="M5.024 20.352c1.335 1.393 2.991 2.735 5.050 3.956 4.771 2.836 13.524 3.567 15.517 7.692h0.009c-1.833-6.575-8.145-9.097-13.588-13.469-2.72-2.185-4.567-4.218-5.804-5.841-1.228-1.615-1.847-2.799-2.074-3.293-0.032-0.063-0.073-0.153-0.111-0.244l-0.011-0.029 0.148 0.207c0.297 0.407 1.050 1.393 2.275 2.72 2.747 2.912 5.859 5.434 9.276 7.505l0.196 0.111c8.163 4.908 9.833 8.64 10.115 9.423 0.017 0.040 0.034 0.092 0.050 0.146l0.003 0.011s0.244-1.484 0-3.671c-0.431-3.881-2.423-10.010-10.127-14.17-2.718-1.462-4.95-2.826-7.105-4.292l0.278 0.178c-1.011-0.689-1.845-1.305-2.657-1.947l0.097 0.074c-4.335-3.401-5.091-5.417-5.091-5.417s-3.665 8.25 0.582 16.268c0.739 1.379 1.708 2.758 2.973 4.084z"></path>
</symbol>
</defs>
</svg>
