<svg xmlns="http://www.w3.org/2000/svg" width="9" height="11" fill="none"><g clip-path="url(#a)"><path fill="#fff" d="m1.426 3.227.01-.023a4.208 4.208 0 0 1-.051-.071s.014.036.041.094Z"/><path fill="#F79967" d="M1.727 6.996c.459.479 1.028.94 1.736 1.36 1.64.975 4.649 1.226 5.334 2.644H8.8c-.63-2.26-2.8-3.127-4.671-4.63-.935-.751-1.57-1.45-1.995-2.008-.422-.555-.635-.962-.713-1.132a1.515 1.515 0 0 1-.042-.094l.051.071c.102.14.361.479.782.935A15.17 15.17 0 0 0 5.468 6.76c2.806 1.687 3.38 2.97 3.477 3.239a.556.556 0 0 1 .018.054s.084-.51 0-1.262C8.815 7.457 8.13 5.35 5.482 3.92a27.439 27.439 0 0 1-2.347-1.414 15.906 15.906 0 0 1-.88-.644C.765.693.505 0 .505 0s-1.26 2.836.2 5.592c.254.474.587.948 1.022 1.404Z"/></g><defs><clipPath id="a"><path fill="#fff" d="M0 0h9v11H0z"/></clipPath></defs></svg>