<svg width="72" height="19" viewBox="0 0 72 19" fill="none" xmlns="http://www.w3.org/2000/svg">
  <mask id="mask0_89_5517" style="mask-type:alpha" maskUnits="userSpaceOnUse" x="0" y="-28" width="72" height="47">
    <path d="M18.001 10C13.601 3.2 4.16764 0.5 0.000976562 0H35.501V10H18.001Z" fill="#F3D2E0" />
    <path d="M53.501 10C57.901 3.2 67.3343 0.5 71.501 0H36.001V10H53.501Z" fill="#F3D2E0" />
    <path d="M59.001 -4.5C59.001 8.47869 48.7035 19 36.001 19C23.2984 19 13.001 8.47869 13.001 -4.5C13.001 -17.4787 23.2984 -28 36.001 -28C48.7035 -28 59.001 -17.4787 59.001 -4.5Z" fill="#F3D2E0" />
  </mask>
  <g mask="url(#mask0_89_5517)">
    <path d="M-5.99902 0H81.001V20H-5.99902V0Z" fill="#F3D2E0" />
    <path d="M30.001 7L36.001 13L42.001 7" stroke="#DE6682" stroke-linecap="round" />
  </g>
</svg>




